<?xml version="1.0" standalone="no"?>
<!DOCTYPE svg PUBLIC "-//W3C//DTD SVG 20010904//EN"
 "http://www.w3.org/TR/2001/REC-SVG-20010904/DTD/svg10.dtd">
<svg version="1.0" xmlns="http://www.w3.org/2000/svg"
 width="700.000000pt" height="700.000000pt" viewBox="0 0 700.000000 700.000000"
 preserveAspectRatio="xMidYMid meet">
<metadata>
Created by potrace 1.14, written by Peter Selinger 2001-2017
</metadata>
<g transform="translate(0.000000,700.000000) scale(0.100000,-0.100000)"
fill="#000000" stroke="none">
<path d="M1343 6989 c-355 -34 -679 -190 -924 -445 -165 -173 -265 -338 -339
-563 -77 -233 -74 -181 -76 -1346 -1 -572 0 -1030 3 -1017 5 27 35 43 133 71
85 24 170 78 355 226 175 140 281 240 336 319 27 39 70 100 95 135 33 47 44
70 40 87 -5 17 0 27 16 38 27 17 135 46 173 46 38 0 506 -290 565 -351 25 -25
75 -101 114 -170 123 -223 170 -278 251 -300 22 -6 88 -9 150 -7 98 4 118 8
179 36 l68 32 442 -275 c373 -233 446 -282 476 -321 19 -26 58 -65 87 -87 30
-22 77 -69 106 -106 92 -116 147 -174 195 -209 57 -40 84 -82 118 -185 28 -85
57 -124 198 -274 66 -70 83 -83 110 -83 21 0 27 -3 17 -9 -35 -22 91 -34 230
-22 153 13 209 36 363 145 12 8 71 -26 466 -272 l25 -16 -25 28 c-13 15 -116
83 -227 152 -175 109 -224 144 -197 144 5 0 229 -138 454 -279 23 -14 24 -14
12 0 -7 9 -72 53 -145 98 -74 45 -151 100 -173 123 -28 30 -32 37 -14 26 14
-8 180 -112 370 -230 190 -118 352 -218 360 -222 8 -5 -10 17 -40 49 l-55 57
85 -53 c47 -29 341 -212 655 -407 313 -195 577 -357 585 -360 8 -3 -5 17 -30
43 -44 47 -41 50 12 13 15 -10 29 -14 32 -9 3 5 10 71 16 147 13 185 13 4076
0 4236 -31 377 -169 678 -429 939 -260 259 -565 399 -935 429 -153 12 -4156
12 -4283 -1z m4111 -1049 c120 -30 209 -82 302 -175 134 -134 194 -276 194
-465 0 -191 -56 -326 -190 -461 -90 -91 -139 -123 -254 -165 -94 -35 -268 -45
-366 -20 -188 47 -359 182 -439 348 -56 115 -74 206 -68 333 8 175 67 305 198
435 84 84 195 148 304 174 89 21 227 20 319 -4z"/>
<path d="M6100 1676 c0 -3 9 -10 20 -16 11 -6 20 -8 20 -6 0 3 -9 10 -20 16
-11 6 -20 8 -20 6z"/>
</g>
</svg>
